<?xml version="1.0" encoding="UTF-8"?>
<svg xmlns="http://www.w3.org/2000/svg" xmlns:xlink="http://www.w3.org/1999/xlink" viewBox="0 0 741.81 315.91">
  <defs>
    <style>
      .cls-1 {
        fill: url(#Sfumatura_senza_nome_6);
      }

      .cls-1, .cls-2, .cls-3, .cls-4, .cls-5, .cls-6, .cls-7, .cls-8 {
        fill-rule: evenodd;
      }

      .cls-2 {
        fill: url(#Sfumatura_senza_nome_5);
      }

      .cls-9, .cls-7 {
        fill: #bc6c25;
      }

      .cls-10 {
        fill: #414f2f;
      }

      .cls-3 {
        fill: url(#Sfumatura_senza_nome_6-2);
      }

      .cls-4 {
        fill: #353f26;
      }

      .cls-5 {
        fill: #5e7043;
      }

      .cls-6 {
        fill: #dda15e;
      }

      .cls-8 {
        fill: url(#Sfumatura_senza_nome_24);
      }
    </style>
    <linearGradient id="Sfumatura_senza_nome_6" data-name="Sfumatura senza nome 6" x1="72.44" y1="119.65" x2="86.92" y2="86.61" gradientTransform="matrix(1, 0, 0, 1, 0, 0)" gradientUnits="userSpaceOnUse">
      <stop offset="0" stop-color="#d79b58"/>
      <stop offset="1" stop-color="#6e3e18"/>
    </linearGradient>
    <linearGradient id="Sfumatura_senza_nome_6-2" data-name="Sfumatura senza nome 6" x1="88.46" y1="249.87" x2="32.79" y2="179.95" xlink:href="#Sfumatura_senza_nome_6"/>
    <linearGradient id="Sfumatura_senza_nome_5" data-name="Sfumatura senza nome 5" x1="80.72" y1="275.52" x2="137.81" y2="223.9" gradientTransform="matrix(1, 0, 0, 1, 0, 0)" gradientUnits="userSpaceOnUse">
      <stop offset="0" stop-color="#d79b58"/>
      <stop offset="1" stop-color="#414f2f"/>
    </linearGradient>
    <linearGradient id="Sfumatura_senza_nome_24" data-name="Sfumatura senza nome 24" x1="112.91" y1="148.59" x2="69.46" y2="132.75" gradientTransform="matrix(1, 0, 0, 1, 0, 0)" gradientUnits="userSpaceOnUse">
      <stop offset="0" stop-color="#d79b58"/>
      <stop offset="1" stop-color="#bc6c25"/>
    </linearGradient>
  </defs>
  <g id="Livello_1" data-name="Livello 1"/>
  <g id="Livello_2" data-name="Livello 2">
    <g id="Livello_1-2" data-name="Livello 1">
      <g>
        <g>
          <path d="M64.16,154.37c-22.8-4.88-47.22,2.28-63.83,18.24-.33,2.93-.33,5.54-.33,8.15,0,29.96,14.33,57.97,38.1,75.56-11.4-8.8-17.26-23.12-15.63-37.46,1.96-15.63,12.38-28.66,27.36-33.87,2.93-1.3,5.53-1.95,8.14-2.28h1.3c13.68-1.63,25.73,3.26,37.78,9.12,5.54,2.61,11.4,5.86,16.61,4.88,4.56-.32,8.47-3.58,12.7-6.51h0c-3.26-.98-7.17-1.63-10.1-3.26-6.51-2.61-11.4-8.14-16.93-12.7-9.77-8.79-21.17-15.3-33.54-19.54-.65,0-.98-.33-1.63-.33h0Z" style="fill: #dda15e; fill-rule: evenodd;"/>
          <path d="M93.34,80.43c-7.69-.3-14.78,2.96-20.11,8.58,.59,3.84,1.48,7.1,3.26,10.35,2.66,5.03,7.1,9.17,11.53,13.6-2.95-11.24-1.18-23.36,5.32-32.53h0Z" style="fill: url(#Sfumatura_senza_nome_6); fill-rule: evenodd;"/>
          <path d="M127.99,227.98c-29.96,1.63-58.95-15.96-70.02-45.27-2.61,.33-5.21,.98-8.14,2.28-14.98,5.21-25.4,18.24-27.36,33.87-1.63,14.33,4.24,28.66,15.63,37.46,.98,.65,1.95,1.63,2.93,2.28,29.31,7.49,60.25-1.3,80.77-23.12,2.28-2.28,4.23-4.88,6.19-7.49h0Z" style="fill: url(#Sfumatura_senza_nome_6-2); fill-rule: evenodd;"/>
          <path d="M121.8,235.47c-20.52,21.82-51.46,30.61-80.77,23.12,21.5,15.31,39.74,34.85,53.41,57.32,13.68-22.47,31.59-42.01,53.09-57.32,7.81-12.71,12.05-26.71,13.03-40.71-4.56,2.93-9.77,5.21-15.31,7.16-5.86,1.63-11.4,2.61-17.26,2.93-1.95,2.61-3.91,5.21-6.19,7.49h0Z" style="fill: url(#Sfumatura_senza_nome_5); fill-rule: evenodd;"/>
          <path d="M160.56,217.88c1.63-22.15-5.54-44.62-20.19-62.53,7.81,25.08,2.93,51.78-12.38,72.63,5.86-.33,11.4-1.3,17.26-2.93,5.54-1.95,10.75-4.23,15.31-7.16h0Z" style="fill: #5e7043; fill-rule: evenodd;"/>
          <path d="M193.45,171.63c-3.91,19.22-15.63,36.15-32.89,46.25-.98,14.01-5.21,28.01-13.03,40.71,27.68-20.52,44.61-52.44,45.92-86.96h0Z" style="fill: #5e7043; fill-rule: evenodd;"/>
          <path d="M152.74,119.52c-8.47-6.84-16.61-14-24.43-21.17-3.26,5.21-6.84,10.1-10.75,14.98-14.65-29.31-13.68-63.51,1.96-92.17,1.63,5.86,3.58,11.73,5.86,16.94,4.56,9.44,10.75,17.59,17.26,25.73,4.23,4.88,8.47,10.1,12.7,15.31,2.93,3.58,5.54,7.49,8.47,11.08-4.56,.32-9.12-.33-13.35-2.61,2.61,10.42,3.58,21.5,2.28,31.92h0Zm17.26-34.52c-13.68-19.54-33.22-36.8-40.71-58.95-2.93-8.47-3.91-17.26-5.21-26.05-35.82,42.99-32.89,106.17,6.84,145.58,3.26,2.93,6.51,6.19,9.44,9.77,14.65,17.91,21.82,40.39,20.19,62.53,17.26-10.09,28.98-27.03,32.89-46.25,2.28-10.1,1.33-27.06-2.6-41.36-3.3-12.01-11.07-31.27-20.85-45.27Z" style="fill: #353f26; fill-rule: evenodd;"/>
          <path d="M125.39,38.1c-2.28-5.21-4.24-11.07-5.86-16.94-15.63,28.66-16.61,62.86-1.96,92.17,3.91-4.88,7.49-9.77,10.75-14.98,7.82,7.16,15.96,14.33,24.43,21.17,1.3-10.42,.33-21.49-2.28-31.92,4.24,2.28,8.79,2.93,13.35,2.61-2.93-3.58-5.54-7.49-8.47-11.08-4.24-5.21-8.47-10.42-12.7-15.31-6.51-8.14-12.7-16.29-17.26-25.73h0Z" style="fill: #5e7043; fill-rule: evenodd;"/>
          <path d="M121.48,185.64c-1.63-1.3-2.61-2.6-3.91-4.23-3.91-4.89-5.86-11.4-7.49-17.91-1.95-8.47-2.93-17.26-6.51-25.08-2.93-6.19-7.49-11.73-12.38-17.26-1.3-1.63-2.93-3.26-4.56-4.56-4.88-4.88-9.77-9.45-12.7-14.98-1.96-3.58-2.93-7.17-3.58-11.4-1.3-7.17-.98-15.31-1.63-22.8-12.05,9.45-21.49,21.82-28.01,35.83C17.59,119.2,2.61,144.93,.33,172.61c16.61-15.95,41.03-23.12,63.83-18.24,.65,0,.98,.33,1.63,.33,12.37,4.24,23.77,10.75,33.54,19.54,5.53,4.56,10.42,10.1,16.93,12.7,2.93,1.63,6.84,2.28,10.1,3.26-1.63-1.63-3.58-2.93-4.89-4.56Zm-27.59-31.03c-2.78-2.38-5.16-4.76-7.94-6.75-1.98-1.59-4.37-2.78-6.75-4.37,0,0,8.04,.3,12.03,1.82,1.76,.67,4.87,2.56,5.64,3.27,1.18,1.09,1.8,2.46,1.8,2.46,1.1,2.76,1.56,7.14,1.96,9.53-2.38-1.98-4.76-3.97-6.75-5.95Z" style="fill: url(#Sfumatura_senza_nome_24); fill-rule: evenodd;"/>
          <path d="M37.42,164.34c.68-.19,19.86,5.43,19.86,5.43,14.25,.93,28.15,7.78,40.96,14.26,7.13,3.22,13.64,7.6,21.33,6.96,1.94,.48,4.49-.7,6.67-.7,.04-.03,.09-.06,.13-.09-3.26-.98-7.17-1.63-10.1-3.26-6.51-2.61-11.4-8.14-16.93-12.7-9.77-8.79-21.17-15.3-33.54-19.54-.65,0-.98-.33-1.63-.33-22.8-4.88-47.22,2.28-63.83,18.24-.33,2.93-.33,5.54-.33,8.15,0,5.54,1.27,15.27,3.31,23.87,3.73-16.74,18.84-26.36,28.4-29.76,3.72-1.32-9.96-4.64-9.96-4.64,2.43-.39,22.8-.62,22.8-.62,0,0-7.13-4.75-7.13-5.26Z" style="fill: #bc6c25; fill-rule: evenodd;"/>
        </g>
        <g>
          <g>
            <path d="M249.76,279.87c-2.98,0-6.34-.42-9.14-1.59-.42-.14-.61-.47-.61-.93v-31.33c0-.7,.28-.75,.84-.75h2.94c.61,0,.84,.05,.84,.75v9.23c2-.56,4.43-.89,6.06-.89,7.32,0,10.58,5.13,10.58,12.45s-3.54,13.05-11.52,13.05Zm-.14-3.87c4.15,0,6.99-2.47,6.99-8.9,0-5.83-2.38-8.76-6.48-8.76-1.12,0-3.22,.09-5.5,.79v16.18c1.68,.51,3.54,.7,4.99,.7Z" style="fill: #414f2f;"/>
            <path d="M269.66,251.52c-1.68,0-3.03-1.35-3.03-3.03s1.35-3.03,3.03-3.03,3.03,1.35,3.03,3.03-1.35,3.03-3.03,3.03Zm1.4,27.83h-2.89c-.56,0-.84-.05-.84-.75v-22.99c0-.7,.28-.75,.84-.75h2.89c.61,0,.84,.05,.84,.75v22.99c0,.7-.23,.75-.84,.75Z" style="fill: #414f2f;"/>
            <path d="M288.96,279.87c-7.13,0-10.91-4.29-10.91-12.73s4.8-12.78,11.05-12.78c7.23,0,11,4.66,11,12.64s-3.82,12.87-11.14,12.87Zm.23-21.68c-4.48,0-6.57,3.96-6.57,8.81,0,5.41,1.49,9.04,6.39,9.04s6.48-4.29,6.48-8.9-1.12-8.95-6.29-8.95Z" style="fill: #414f2f;"/>
            <path d="M315.67,254.36c1.31,0,3.22,.09,5.22,.61v-8.95c0-.7,.23-.75,.84-.75h2.94c.56,0,.84,.05,.84,.75v31.24c0,.42-.19,.75-.61,.89-3.36,1.45-6.95,1.73-9.7,1.73-7.97,0-10.91-4.9-10.91-12.36,0-6.95,3.4-13.15,11.38-13.15Zm.28,21.59c1.49,0,3.78-.28,4.94-.79v-16.18c-2.19-.56-3.45-.65-4.9-.65-3.92,0-6.95,2.47-6.95,9.18,0,6.15,2.56,8.44,6.9,8.44Z" style="fill: #414f2f;"/>
            <path d="M334.83,251.52c-1.68,0-3.03-1.35-3.03-3.03s1.35-3.03,3.03-3.03,3.03,1.35,3.03,3.03-1.35,3.03-3.03,3.03Zm1.4,27.83h-2.89c-.56,0-.84-.05-.84-.75v-22.99c0-.7,.28-.75,.84-.75h2.89c.61,0,.84,.05,.84,.75v22.99c0,.7-.23,.75-.84,.75Z" style="fill: #414f2f;"/>
            <path d="M354.04,279.59h-2.05c-1.26,0-1.91-.28-2.61-2.15l-7.51-22.05c-.09-.33,.05-.51,.42-.51h3.54c.51,0,.56,.14,.7,.47l3.96,11.98,2.42,7.97h.28l2.33-7.88,3.82-12.08c.14-.33,.19-.47,.7-.47h3.45c.37,0,.51,.19,.42,.51l-7.27,22.01c-.56,1.63-.98,2.19-2.61,2.19Z" style="fill: #414f2f;"/>
            <path d="M387.93,264.53c0,3.17-1.82,4.01-3.87,4.01h-12.68c.14,5.41,3.26,7.37,7.09,7.37,2.05,0,4.24-.65,5.5-1.35,.47-.23,.79-.14,.98,.28l1.12,2.19c.23,.51,.14,.84-.28,1.07-2.38,1.45-5.18,1.77-7.65,1.77-7.13,0-11.38-3.82-11.38-12.64,0-8.16,4.76-12.87,10.91-12.87,7.09,0,10.26,4.01,10.26,10.16Zm-10.21-6.34c-3.82,0-6.01,3.4-6.15,6.71h12.03c0-3.68-1.17-6.71-5.87-6.71Z" style="fill: #414f2f;"/>
            <path d="M406.86,260.98c-1.77-1.68-3.92-2.52-6.48-2.52-.79,0-1.63,.09-2.38,.23v19.91c0,.7-.23,.75-.84,.75h-2.89c-.56,0-.84-.05-.84-.75v-20.09c0-2.56,.65-3.54,3.26-3.92,1.12-.14,2.28-.23,3.4-.23,3.59,0,6.76,.84,9.51,3.22,.28,.23,.33,.51,.09,.79l-1.96,2.56c-.33,.51-.56,.28-.89,.05Z" style="fill: #414f2f;"/>
            <path d="M420.98,279.87c-2.98,0-6.62-.47-9.23-1.91-.37-.19-.65-.51-.33-1.07l.98-2.19c.23-.51,.42-.7,1.12-.37,2.47,1.12,5.27,1.68,7.46,1.68,2.94,0,4.48-1.21,4.48-3.22s-2.01-3.08-5.5-4.34c-5.08-1.86-7.55-3.45-7.55-7.23,0-4.1,3.03-6.85,8.49-6.85,2.56,0,4.9,.37,7.37,1.35,.42,.19,.56,.61,.42,.98l-.98,2.47c-.19,.42-.47,.37-.79,.23-2.56-.93-4.06-1.17-6.15-1.17-2.66,0-3.87,1.26-3.87,2.7,0,1.91,1.4,2.66,5.27,4.15,3.73,1.35,7.69,3.03,7.69,7.51,0,4.94-4.01,7.27-8.86,7.27Z" style="fill: #414f2f;"/>
            <path d="M437.99,251.52c-1.68,0-3.03-1.35-3.03-3.03s1.35-3.03,3.03-3.03,3.03,1.35,3.03,3.03-1.35,3.03-3.03,3.03Zm1.4,27.83h-2.89c-.56,0-.84-.05-.84-.75v-22.99c0-.7,.28-.75,.84-.75h2.89c.61,0,.84,.05,.84,.75v22.99c0,.7-.23,.75-.84,.75Z" style="fill: #414f2f;"/>
            <path d="M444.99,257.77v-1.54c0-.51,.14-.75,.75-.89l3.59-.75,.79-4.48c.14-.7,.37-.75,.98-.98l1.73-.65c.51-.14,.79-.05,.79,.65v5.74h4.9c.7,0,.75,.33,.75,.75v2.14c0,.51-.05,.75-.75,.75h-4.9v14.55c0,2.05,.89,2.8,2.89,2.8,.79,0,2.61-.19,3.54-.33,.61-.14,.75,.05,.79,.42l.47,2.42c.05,.37,.14,.65-.42,.84-1.91,.61-4.24,.65-5.18,.65-4.9,0-6.67-2.05-6.67-6.53v-14.83h-3.31c-.7,0-.75-.33-.75-.75Z" style="fill: #414f2f;"/>
            <path d="M467.92,289.1c-.79,0-2.28-.09-3.82-.51-.51-.14-.7-.37-.56-.79l.56-2.33c.14-.56,.33-.61,.84-.47,1.07,.23,1.4,.33,2.28,.33,2.24,0,3.45-.75,4.2-3.03l1.07-3.22h-.98c-.98,0-1.73-.05-2.28-1.86l-6.9-21.82c-.09-.33,.05-.51,.42-.51h3.59c.51,0,.56,.14,.7,.47l3.54,11.52,2.52,8.63h.28l2.8-8.67,3.82-11.47c.14-.33,.19-.47,.7-.47h3.45c.37,0,.51,.19,.42,.51l-9.23,27.88c-1.45,4.29-3.73,5.83-7.41,5.83Z" style="fill: #414f2f;"/>
            <path d="M498.55,254.36c1.31,0,3.22,.09,5.22,.61v-8.95c0-.7,.23-.75,.84-.75h2.94c.56,0,.84,.05,.84,.75v31.24c0,.42-.19,.75-.61,.89-3.36,1.45-6.95,1.73-9.7,1.73-7.97,0-10.91-4.9-10.91-12.36,0-6.95,3.4-13.15,11.38-13.15Zm.28,21.59c1.49,0,3.78-.28,4.94-.79v-16.18c-2.19-.56-3.45-.65-4.9-.65-3.92,0-6.95,2.47-6.95,9.18,0,6.15,2.56,8.44,6.9,8.44Z" style="fill: #bc6c25;"/>
            <path d="M517.71,251.52c-1.68,0-3.03-1.35-3.03-3.03s1.35-3.03,3.03-3.03,3.03,1.35,3.03,3.03-1.35,3.03-3.03,3.03Zm1.4,27.83h-2.89c-.56,0-.84-.05-.84-.75v-22.99c0-.7,.28-.75,.84-.75h2.89c.61,0,.84,.05,.84,.75v22.99c0,.7-.23,.75-.84,.75Z" style="fill: #bc6c25;"/>
            <path d="M546.75,255.99c.42,.14,.61,.47,.61,.93v20.37c0,8.3-3.96,11.33-11.98,12.45-.51,.05-.7,0-.84-.51l-.37-2.94c0-.37,.19-.61,.51-.65,5.36-.75,7.97-2.29,7.97-6.39v-.23c-2.01,.56-4.34,.89-5.97,.89-7.32,0-10.58-5.13-10.58-12.45s3.54-13.05,11.52-13.05c2.98,0,6.34,.42,9.14,1.59Zm-9,2.28c-4.15,0-6.99,2.47-6.99,8.9,0,5.83,2.38,8.77,6.48,8.77,1.12,0,3.22-.09,5.5-.79v-16.18c-1.68-.51-3.54-.7-4.99-.7Z" style="fill: #bc6c25;"/>
            <path d="M556.63,251.52c-1.68,0-3.03-1.35-3.03-3.03s1.35-3.03,3.03-3.03,3.03,1.35,3.03,3.03-1.35,3.03-3.03,3.03Zm1.4,27.83h-2.89c-.56,0-.84-.05-.84-.75v-22.99c0-.7,.28-.75,.84-.75h2.89c.61,0,.84,.05,.84,.75v22.99c0,.7-.23,.75-.84,.75Z" style="fill: #bc6c25;"/>
            <path d="M563.62,257.77v-1.54c0-.51,.14-.75,.75-.89l3.59-.75,.79-4.48c.14-.7,.37-.75,.98-.98l1.73-.65c.51-.14,.79-.05,.79,.65v5.74h4.9c.7,0,.75,.33,.75,.75v2.14c0,.51-.05,.75-.75,.75h-4.9v14.55c0,2.05,.89,2.8,2.89,2.8,.79,0,2.61-.19,3.54-.33,.61-.14,.75,.05,.79,.42l.47,2.42c.05,.37,.14,.65-.42,.84-1.91,.61-4.24,.65-5.18,.65-4.9,0-6.67-2.05-6.67-6.53v-14.83h-3.31c-.7,0-.75-.33-.75-.75Z" style="fill: #bc6c25;"/>
            <path d="M602.04,278.28c-2.8,1.26-6.34,1.59-9.32,1.59-8.11,0-10.16-3.64-10.16-7.79s2.47-8.35,10.35-8.35h5.32v-.84c0-2.75-.93-4.57-5.27-4.57-2.24,0-5.04,.56-6.43,.93-.61,.19-.89,.19-1.03-.37l-.61-2.28c-.14-.42,0-.75,.42-.89,2.47-.98,5.97-1.35,8.44-1.35,6.34,0,9.09,3.03,9.09,8.3v14.27c0,.65-.28,1.12-.79,1.35Zm-8.86-10.63c-2.24,0-6.01,.33-6.01,4.43,0,3.03,2.14,4.01,5.5,4.01,1.03,0,3.59-.14,5.5-.79v-7.65h-4.99Z" style="fill: #bc6c25;"/>
            <path d="M617.7,279.31c-1.17,.51-2.75,.56-3.82,.56-3.31,0-4.52-1.45-4.52-4.8v-29.05c0-.7,.23-.75,.84-.75h2.98c.61,0,.84,.05,.84,.75v27.79c0,1.68,.42,2.05,1.54,2.05,.56,0,1.17-.05,1.68-.09s.65,0,.7,.51l.28,2.05c.05,.56,.05,.65-.51,.98Z" style="fill: #bc6c25;"/>
            <path d="M619.89,257.77v-1.54c0-.51,.14-.75,.75-.89l3.59-.75,.79-4.48c.14-.7,.37-.75,.98-.98l1.73-.65c.51-.14,.79-.05,.79,.65v5.74h4.9c.7,0,.75,.33,.75,.75v2.14c0,.51-.05,.75-.75,.75h-4.9v14.55c0,2.05,.89,2.8,2.89,2.8,.79,0,2.61-.19,3.54-.33,.61-.14,.75,.05,.79,.42l.47,2.42c.05,.37,.14,.65-.42,.84-1.91,.61-4.24,.65-5.18,.65-4.9,0-6.67-2.05-6.67-6.53v-14.83h-3.31c-.7,0-.75-.33-.75-.75Z" style="fill: #bc6c25;"/>
            <path d="M651.97,269.23l-2.52,8.3c-.37,1.3-.89,2.05-2.52,2.05h-2.01c-1.16,0-2-.33-2.42-2.24l-4.8-22.05c-.09-.33,.05-.51,.42-.51h3.54c.51,0,.56,.14,.7,.47l2.33,12.59,1.26,6.76h.28l1.77-6.11,2.98-10.82c.33-.98,.75-1.96,2.56-1.96h1.58c1.49,0,1.87,.84,2.24,2.1l2.8,9.93,2.05,7.27h.28l1.26-7.18,2.33-12.59c.14-.33,.19-.47,.7-.47h3.54c.37,0,.51,.19,.42,.51l-4.85,22.05c-.42,1.91-1.45,2.24-2.61,2.24h-1.87c-1.63,0-2-.42-2.52-2.05l-2.52-8.58-2.1-7.93h-.19l-2.14,8.2Z" style="fill: #bc6c25;"/>
            <path d="M678.03,251.52c-1.68,0-3.03-1.35-3.03-3.03s1.35-3.03,3.03-3.03,3.03,1.35,3.03,3.03-1.35,3.03-3.03,3.03Zm1.4,27.83h-2.89c-.56,0-.84-.05-.84-.75v-22.99c0-.7,.28-.75,.84-.75h2.89c.61,0,.84,.05,.84,.75v22.99c0,.7-.23,.75-.84,.75Z" style="fill: #bc6c25;"/>
            <path d="M706.93,279.35h-2.89c-.56,0-.84-.05-.84-.75v-12.31c0-5.31-1.54-7.88-7.27-7.88-.7,0-2.1,0-4.01,.33v19.86c0,.7-.23,.75-.84,.75h-2.89c-.56,0-.84-.05-.84-.75v-19.95c0-2.29,.65-3.54,3.26-3.92,1.26-.14,4.24-.37,5.69-.37,7.97,0,11.47,3.36,11.47,11.8v12.45c0,.7-.23,.75-.84,.75Z" style="fill: #bc6c25;"/>
          </g>
          <g>
            <path d="M264.11,168.63v45.47h22.87c10.31,0,21.68-1.99,26.28-6.09,4.84-3.98,7.21-10.31,7.21-18.88,0-10.44-2.86-18.14-8.32-23.23-5.47-5.09-17.71-7.58-28.89-7.58h-1.37c-5.59,0-17.78,4.6-17.78,10.31h0Zm0-57.52v39.01h19.52c10.19,0,21.31-1.99,25.91-5.84,4.6-3.98,6.96-10.31,6.96-19.01s-2.61-14.53-7.7-18.51c-4.97-3.85-16.47-5.84-26.78-5.96-2.86,0-12.93,.99-14.92,2.98-1.99,1.99-2.98,4.47-2.98,7.33h0Zm33.12,111.31h-57.22V108.01c0-8.57,6.96-15.53,15.53-15.53h30.45c8.07,0,18.7,.37,24.04,1.12,5.34,.87,9.44,1.99,12.42,3.6,5.22,2.86,9.32,6.71,12.3,11.8,3.11,4.97,4.6,10.44,4.6,16.52,0,7.21-1.99,13.29-5.71,18.01-3.85,4.72-9.44,8.07-16.77,9.94,8.7,2.36,15.4,6.46,20,12.3,4.72,5.84,7.08,13.04,7.08,21.86,0,11.8-3.85,20.5-11.55,26.21-7.58,5.71-19.26,8.57-35.16,8.57h0Z" style="fill: #414f2f;"/>
            <path d="M572.14,112.54v89.82c0,5.71,4.6,10.31,10.31,10.31,7.95,0,12.48-.25,19.56-2.24,5.09-1.37,9.32-3.48,12.67-6.46,5.34-4.6,9.44-10.93,12.3-19.01,2.86-8.07,4.22-17.39,4.22-27.95,0-17.64-4.6-31.18-13.79-40.62-11.06-11.3-20.43-13.67-34.59-14.16-2.98,0-5.47,.87-7.58,2.98-1.99,1.99-3.11,4.47-3.11,7.33h0Zm-23.85,94.29V107.95c0-8.57,6.96-15.53,15.53-15.53h16.27c25.34,0,41.42,5.96,55.59,18.01,14.29,12.05,21.49,28.57,21.49,49.82,0,18.63-5.84,33.67-17.52,45.1-11.55,11.3-26.96,17.02-45.96,17.02h-29.87c-8.57,0-15.53-6.96-15.53-15.53h0Z" style="fill: #bc6c25;"/>
            <rect x="363.72" y="92.48" width="23.85" height="129.94" style="fill: #414f2f;"/>
            <path d="M509.05,157.45c0-17.76-3.73-32.05-11.43-43.11-7.45-11.06-17.27-16.52-29.19-16.52s-21.62,5.47-29.19,16.52c-7.58,11.06-11.43,25.34-11.43,43.11s3.85,32.05,11.43,42.98c7.58,11.06,17.39,16.52,29.19,16.52s21.62-5.47,29.19-16.4c7.58-11.06,11.43-25.34,11.43-43.11h0Zm-40.62,67.95c-9.07,0-17.52-1.62-25.47-4.97-8.07-3.23-15.16-8.07-21.49-14.41-6.34-6.21-11.06-13.54-14.41-21.86-3.23-8.32-4.84-17.14-4.84-26.71s1.62-18.63,4.97-26.96c3.23-8.2,8.07-15.53,14.41-21.74,6.34-6.21,13.54-10.93,21.62-14.29,8.07-3.35,16.4-4.97,25.22-4.97,7.08,0,13.91,1.12,20.62,3.23,6.71,2.24,12.92,5.47,18.76,9.69,8.7,6.34,15.4,14.29,20.13,23.73,4.6,9.44,6.96,19.88,6.96,31.31,0,9.57-1.61,18.51-4.97,26.71-3.35,8.32-8.2,15.65-14.53,21.86-6.46,6.34-13.67,11.18-21.62,14.41-7.95,3.35-16.4,4.97-25.34,4.97h0Z" style="fill: #414f2f;"/>
            <path d="M683.79,222.36V112.42c0-5.59-4.6-10.19-10.19-10.19h-23.73v-9.81h91.93v9.81h-23.85c-5.59,0-10.19,4.6-10.19,10.19v109.94h-23.98Z" style="fill: #bc6c25;"/>
          </g>
        </g>
      </g>
    </g>
  </g>
</svg>