<?xml version="1.0" encoding="utf-8"?>
<!-- Generator: Adobe Illustrator 28.0.0, SVG Export Plug-In . SVG Version: 6.00 Build 0)  -->
<svg version="1.1" id="Layer_1" xmlns="http://www.w3.org/2000/svg" xmlns:xlink="http://www.w3.org/1999/xlink" x="0px" y="0px"
	 viewBox="0 0 786.2 211.3" style="enable-background:new 0 0 786.2 211.3;" xml:space="preserve">
<style type="text/css">
	.st0{fill:#575756;}
	.st1{fill:url(#SVGID_1_);}
	.st2{fill:url(#SVGID_00000035505317327172766430000012545301152764225928_);}
	.st3{opacity:0.49;fill:url(#SVGID_00000036952808323968494530000007471972225446623678_);}
	.st4{opacity:0.6;fill:url(#SVGID_00000029752750014899511850000008361080108939852717_);}
	.st5{opacity:0.6;fill:url(#SVGID_00000037660711692512965360000005613218108557643183_);}
	
		.st6{opacity:0.5;clip-path:url(#SVGID_00000031904063613527630140000004862741421112152456_);fill:url(#SVGID_00000012469762590594395830000013002930092802502814_);}
</style>
<g>
	<g>
		<g>
			<g>
				<g>
					<path class="st0" d="M235.4,78.2V53.4c0-0.7,0.3-1.1,1-1.1h5.2c0.7,0,1,0.4,1,1.1v24.1c0,6.7,2.2,9.8,8.1,9.8
						c5.6,0,7.7-2.9,7.7-9.6V53.4c0-0.7,0.2-1.1,1-1.1h4.7c0.7,0,1,0.4,1,1.1v24.7c0,10.1-4.5,14.9-14.7,14.9
						C240.1,93,235.4,88.5,235.4,78.2z"/>
					<path class="st0" d="M273.1,91.3V53.4c0-0.7,0.3-1.1,1-1.1h5.3c0.7,0,1,0.4,1,1.1v15.1c0,0.6,0.3,0.8,0.7,0.8
						c0.4,0,0.7-0.2,1-0.6l11-15.3c0.7-1,1-1,1.7-1h5.3c0.4,0,0.6,0.2,0.6,0.5c0,0.3-0.1,0.6-0.7,1.4l-11.9,16
						c-0.2,0.3-0.3,0.5-0.3,0.7c0,0.2,0.1,0.4,0.2,0.8L300,90.4c0.5,0.7,0.6,1,0.6,1.3c0,0.4-0.2,0.7-0.8,0.7h-5.9
						c-0.6,0-1-0.1-1.3-0.7L282,74.5c-0.2-0.4-0.5-0.5-0.9-0.5c-0.5,0-0.8,0.2-0.8,0.8v16.6c0,0.7-0.3,1-1,1h-5.2
						C273.4,92.4,273.1,92.1,273.1,91.3z"/>
					<path class="st0" d="M316.2,73c0-13.7,6.9-21.4,19.3-21.4c2.8,0,5.6,0.5,7.6,1.4c1.1,0.4,1.4,0.7,1.4,1.7v3.5
						c0,0.8-0.2,1.1-0.8,1.1c-0.8,0-3.5-2.2-8.1-2.2c-7.3,0-11.9,5.3-11.9,15.5c0,9.4,4.3,14.8,12,14.8c5.2,0,7.1-2.3,8.1-2.3
						c0.5,0,0.7,0.4,0.7,0.8v3.5c0,1.1-0.4,1.6-1.9,2.2c-2,0.9-5.1,1.3-8.2,1.3C322.5,93,316.2,85.6,316.2,73z"/>
					<path class="st0" d="M348.1,76.9c0-10.6,5.5-15.8,13.7-15.8c8.5,0,12.7,5.2,12.7,15.7c0,1-0.2,1.4-1.1,1.4h-17.3
						c-0.8,0-1,0.3-1,1.2c0,6.5,4.4,8.3,8.9,8.3c4.9,0,7-1.8,8.1-1.8c0.6,0,0.8,0.4,0.8,1v2.7c0,0.7-0.2,1.2-1.1,1.6
						c-1.7,0.7-4.6,1.5-8.2,1.5C354,92.8,348.1,88.4,348.1,76.9z M367,73.7c0.7,0,0.8-0.2,0.8-0.8c0-3.2-1.3-7.1-6.1-7.1
						c-4.5,0-6.5,3.9-6.5,7.1c0,0.5,0.1,0.8,0.8,0.8H367z"/>
					<path class="st0" d="M380,91.3V62.9c0-0.8,0.2-1,0.9-1h5c0.6,0,0.8,0.3,0.8,0.7c0,0.3,0.2,0.5,0.6,0.5c1.1,0,3.5-2,8.2-2
						c7.1,0,9.4,4,9.4,11.6v18.6c0,0.7-0.4,1.1-1.1,1.1h-4.9c-0.7,0-1-0.4-1-1.1V72.9c0-4.8-1.4-6.7-5.5-6.7c-2.8,0-5.5,0.9-5.5,3.4
						v21.7c0,0.7-0.3,1.1-1,1.1h-4.8C380.4,92.4,380,92,380,91.3z"/>
					<path class="st0" d="M413.9,84.4v-17c0-0.5-0.2-0.7-0.6-0.7h-3.4c-0.7,0-1.1-0.3-1.1-1.1v-2.8c0-0.7,0.4-1,1.1-1h3.4
						c0.4,0,0.6-0.2,0.6-0.7v-6.3c0-0.7,0.3-1.1,1-1.1h4.9c0.8,0,1.1,0.4,1.1,1.1v6.3c0,0.5,0.3,0.7,0.7,0.7h6.7
						c0.8,0,1.1,0.4,1.1,1v2.8c0,0.7-0.4,1.1-1.1,1.1h-6.8c-0.4,0-0.7,0.2-0.7,0.7v16c0,2.8,1.3,4,3.8,4c2.4,0,3.3-1.1,4-1.1
						c0.4,0,0.7,0.2,0.7,0.8v3.4c0,1.5-3.2,2.4-6.5,2.4C416.7,92.8,413.9,90,413.9,84.4z"/>
					<path class="st0" d="M434.1,91.3V62.9c0-0.7,0.2-1,0.9-1h4.9c0.7,0,0.9,0.2,0.9,0.9c0,0.5,0.1,0.8,0.6,0.8c1,0,3.2-2.3,6.5-2.3
						c2,0,2.4,0.5,2.4,1.5v3.7c0,0.5-0.2,0.9-0.8,0.9c-0.7,0-1.5-0.2-3.1-0.2c-3.1,0-5.5,1.4-5.5,4.9v19.3c0,0.7-0.2,1-0.8,1H435
						C434.4,92.4,434.1,92,434.1,91.3z"/>
					<path class="st0" d="M452.6,76.9c0-10.6,5.5-15.8,13.7-15.8c8.5,0,12.7,5.2,12.7,15.7c0,1-0.2,1.4-1.1,1.4h-17.3
						c-0.8,0-1,0.3-1,1.2c0,6.5,4.4,8.3,8.9,8.3c4.9,0,7-1.8,8.1-1.8c0.6,0,0.8,0.4,0.8,1v2.7c0,0.7-0.2,1.2-1.1,1.6
						c-1.7,0.7-4.6,1.5-8.2,1.5C458.5,92.8,452.6,88.4,452.6,76.9z M471.5,73.7c0.7,0,0.8-0.2,0.8-0.8c0-3.2-1.3-7.1-6.1-7.1
						c-4.5,0-6.5,3.9-6.5,7.1c0,0.5,0.1,0.8,0.8,0.8H471.5z"/>
					<path class="st0" d="M499.1,91.3V67.6c0-0.5-0.2-0.8-0.7-0.8h-2.9c-0.7,0-1-0.2-1-1v-3c0-0.7,0.4-1,1-1h2.9
						c0.5,0,0.7-0.2,0.7-0.7V58c0-5.5,2.9-8.4,8.3-8.4c2.9,0,4.9,0.8,4.9,2V54c0,0.8-0.4,1-0.7,1c-0.6,0-1.1-0.5-2.6-0.5
						c-2,0-2.9,1-2.9,3.7v2.9c0,0.5,0.2,0.7,0.7,0.7h4.1c0.8,0,1,0.3,1,1v3c0,0.7-0.2,1-1,1h-4.1c-0.5,0-0.7,0.2-0.7,0.8v23.8
						c0,0.7-0.3,1-1,1h-5C499.5,92.4,499.1,92,499.1,91.3z"/>
					<path class="st0" d="M514.3,76.9c0-9.4,4.4-15.8,14-15.8c9.4,0,13.9,5.8,13.9,15.8c0,9.7-4.3,15.9-13.9,15.9
						C518.7,92.8,514.3,86.7,514.3,76.9z M535,76.9c0-7.4-2.1-10.9-6.8-10.9c-4.9,0-7,3.7-7,10.9c0,7.6,2.2,11,6.9,11
						C532.8,87.9,535,84.4,535,76.9z"/>
					<path class="st0" d="M548.3,91.3V62.9c0-0.7,0.2-1,0.9-1h4.9c0.7,0,0.9,0.2,0.9,0.9c0,0.5,0.1,0.8,0.6,0.8c1,0,3.2-2.3,6.5-2.3
						c2,0,2.4,0.5,2.4,1.5v3.7c0,0.5-0.2,0.9-0.8,0.9c-0.7,0-1.5-0.2-3.1-0.2c-3.1,0-5.5,1.4-5.5,4.9v19.3c0,0.7-0.2,1-0.8,1h-5.2
						C548.7,92.4,548.3,92,548.3,91.3z"/>
				</g>
				<g>
					<path class="st0" d="M235.1,152.6v-37.9c0-0.8,0.3-1.1,1-1.1h19.5c0.8,0,1.1,0.3,1.1,1v3.5c0,0.7-0.3,1-1.1,1h-12.6
						c-0.4,0-0.7,0.2-0.7,0.8v9.5c0,0.5,0.2,0.7,0.7,0.7h9.9c0.7,0,1,0.3,1,1v3.6c0,0.7-0.3,1-1,1h-9.9c-0.4,0-0.7,0.2-0.7,0.7v11
						c0,0.5,0.2,0.8,0.7,0.8h13.7c0.8,0,1,0.3,1,1v3.5c0,0.7-0.2,1-1,1h-20.7C235.4,153.6,235.1,153.3,235.1,152.6z"/>
					<path class="st0" d="M261.4,138.6c0-9.8,4.8-16.3,14.7-16.3c2.8,0,4.8,0.4,6.5,1.2c1,0.4,1.3,0.8,1.3,1.6v3.2
						c0,0.6-0.2,0.9-0.8,0.9c-0.9,0-2.3-1.9-6.2-1.9c-5.3,0-8.3,4-8.3,11.1c0,7.1,3.1,10.6,8.1,10.6c3.7,0,5.5-1.7,6.3-1.7
						c0.7,0,0.9,0.4,0.9,1.2v2.8c0,0.9-0.5,1.3-1.6,1.7c-1.7,0.8-4.3,1.1-6.9,1.1C266.3,154,261.4,148.4,261.4,138.6z"/>
					<path class="st0" d="M288.1,138.1c0-9.4,4.4-15.8,14-15.8c9.4,0,13.9,5.8,13.9,15.8c0,9.7-4.3,15.9-13.9,15.9
						C292.4,154,288.1,147.9,288.1,138.1z M308.8,138.1c0-7.4-2.1-10.9-6.8-10.9c-4.9,0-7,3.7-7,10.9c0,7.6,2.2,11,6.9,11
						C306.5,149.1,308.8,145.7,308.8,138.1z"/>
					<path class="st0" d="M322.1,152.6v-39.9c0-0.7,0.4-1.1,1.1-1.1h4.8c0.7,0,1,0.4,1,1.1v39.8c0,0.7-0.3,1-1,1h-4.9
						C322.4,153.6,322.1,153.2,322.1,152.6z"/>
					<path class="st0" d="M335.2,138.1c0-9.4,4.4-15.8,14-15.8c9.4,0,13.9,5.8,13.9,15.8c0,9.7-4.3,15.9-13.9,15.9
						C339.5,154,335.2,147.9,335.2,138.1z M355.9,138.1c0-7.4-2.1-10.9-6.8-10.9c-4.9,0-7,3.7-7,10.9c0,7.6,2.2,11,6.9,11
						C353.6,149.1,355.9,145.7,355.9,138.1z"/>
					<path class="st0" d="M370.7,165.5c-1.6-0.7-1.9-1.1-1.9-2.3v-2.6c0-0.8,0.3-1.3,1-1.3c1.1,0,3.5,2.3,9.5,2.3
						c2.1,0,4.3-0.3,5.8-1.4c1.6-1.2,2.1-3.2,2.1-5.6v-2.1c0-0.5-0.1-0.8-0.5-0.8c-0.8,0-2.2,1.9-6.8,1.9c-7.9,0-12.5-5.8-12.5-15.3
						c0-10.4,5.4-16,12.8-16c4.3,0,6,2,6.8,2c0.3,0,0.4-0.1,0.4-0.5c0.1-0.4,0.2-0.7,0.8-0.7h4.9c0.7,0,0.8,0.4,0.8,1v28.7
						c0,4.4-0.4,7.6-2.4,10.1c-2.6,3.1-7,4.1-11.9,4.1C375.7,167,372.6,166.2,370.7,165.5z M387.2,144.9v-14.4c0-2.2-2.2-3.2-5-3.2
						c-4.6,0-7.7,3.1-7.7,11c0,6.5,2.2,10.4,7.4,10.4C385,148.7,387.2,147.3,387.2,144.9z"/>
					<path class="st0" d="M401.8,165.5v-3.1c0-0.8,0.4-1.1,1-1.1c0.2,0,0.7,0.1,1.5,0.1c1.2,0,2.2-0.4,2.9-2c1.1-2.5,1.3-3.4,1.3-4
						c0-0.4-0.1-1-0.4-1.7l-9.4-28.7c-0.2-0.6-0.3-0.9-0.3-1.2c0-0.4,0.2-0.6,0.8-0.6h5.1c0.6,0,1,0.2,1.1,0.8l6.3,22.1
						c0.1,0.4,0.2,0.5,0.5,0.5c0.2,0,0.4-0.2,0.5-0.6l6-22.1c0.2-0.7,0.6-0.8,1.2-0.8h4.3c0.5,0,0.7,0.2,0.7,0.6
						c0,0.3-0.1,0.5-0.2,1.3l-10.6,33.7c-1.9,6-4.6,8.3-9.4,8.3C402.4,167,401.8,166.5,401.8,165.5z"/>
					<path class="st0" d="M440.5,142.9c0-4.9,2.5-7.9,6.9-11c0.4-0.2,0.5-0.4,0.5-0.6c0-0.2-0.1-0.4-0.3-0.7c-2.3-2.6-4-5.2-4-8.8
						c0-5.1,3.6-9.1,11.2-9.1c6,0,10.6,3,10.6,8.9c0,4.4-2.5,7.6-7.1,10.1c-0.4,0.2-0.5,0.4-0.5,0.7c0,0.2,0.1,0.3,0.2,0.5l7.2,8.8
						c0.2,0.2,0.4,0.3,0.6,0.3c0.3,0,0.4-0.2,0.6-0.5c0.7-1.7,1.1-3.2,1.1-5.9c0-0.5,0.2-1,1-1h3.9c0.8,0,1.1,0.2,1.1,1.3
						c0,3.7-0.7,7.6-2.9,10.4c-0.2,0.3-0.2,0.4-0.2,0.6c0,0.2,0.1,0.4,0.3,0.7l3.4,3.9c0.7,0.8,0.8,1,0.8,1.4s-0.2,0.5-0.7,0.5h-5.9
						c-0.7,0-1-0.2-1.4-0.7l-0.8-1c-0.2-0.2-0.3-0.3-0.5-0.3c-0.2,0-0.4,0.1-0.7,0.2c-2.6,1.6-5.8,2.5-10,2.5
						C447.1,154.3,440.5,150.9,440.5,142.9z M460.5,147.6c0.5-0.2,0.6-0.4,0.6-0.7c0-0.2-0.1-0.4-0.3-0.6l-8.6-10.5
						c-0.2-0.2-0.3-0.3-0.6-0.3c-0.2,0-0.4,0.1-0.7,0.3c-1.9,1.4-3.6,3.1-3.6,6.4c0,4.9,3.7,6.7,7.7,6.7
						C457.3,148.9,459.1,148.5,460.5,147.6z M454.6,128.1c2.5-1.4,4.1-3.3,4.1-6.4c0-2.8-1.6-4.6-4.2-4.6c-2.8,0-4.4,1.7-4.4,4.4
						c0,2.2,0.8,3.6,3.2,6.5c0.2,0.2,0.4,0.3,0.6,0.3S454.3,128.3,454.6,128.1z"/>
					<path class="st0" d="M492.7,152.6v-37.9c0-0.7,0.3-1.1,1.1-1.1h5.2c0.7,0,1,0.4,1,1.1v14.5c0,0.6,0.2,0.8,0.8,0.8h14
						c0.5,0,0.7-0.2,0.7-0.7v-14.6c0-0.7,0.4-1.1,1.1-1.1h5.2c0.7,0,1,0.4,1,1.1v37.9c0,0.7-0.3,1-1,1h-5.3c-0.7,0-1-0.3-1-1v-16.3
						c0-0.6-0.3-0.7-0.7-0.7h-14.1c-0.5,0-0.7,0.1-0.7,0.7v16.3c0,0.7-0.3,1-1,1h-5.2C493,153.6,492.7,153.3,492.7,152.6z"/>
					<path class="st0" d="M530.9,165.5v-3.1c0-0.8,0.4-1.1,1-1.1c0.2,0,0.7,0.1,1.5,0.1c1.2,0,2.2-0.4,2.9-2c1.1-2.5,1.3-3.4,1.3-4
						c0-0.4-0.1-1-0.4-1.7l-9.4-28.7c-0.2-0.6-0.3-0.9-0.3-1.2c0-0.4,0.2-0.6,0.8-0.6h5.1c0.6,0,1,0.2,1.1,0.8L541,146
						c0.1,0.4,0.2,0.5,0.5,0.5c0.2,0,0.4-0.2,0.5-0.6l6-22.1c0.2-0.7,0.6-0.8,1.2-0.8h4.3c0.5,0,0.7,0.2,0.7,0.6
						c0,0.3-0.1,0.5-0.2,1.3l-10.6,33.7c-1.9,6-4.6,8.3-9.4,8.3C531.5,167,530.9,166.5,530.9,165.5z"/>
					<path class="st0" d="M556.2,138.6c0-10.7,5.3-16.3,13.3-16.3c3.9,0,5.3,1.4,6.1,1.4c0.4,0,0.4-0.3,0.4-0.7v-10.3
						c0-0.7,0.4-1.1,1.1-1.1h4.9c0.8,0,1,0.4,1,1.1v39.9c0,0.7-0.2,1-1.1,1h-4.7c-0.5,0-0.8-0.2-0.8-0.8c0-0.3-0.1-0.6-0.5-0.6
						c-0.9,0-2.6,1.8-7,1.8C560.8,154,556.2,148.2,556.2,138.6z M575.9,145.7v-15.2c0-2.2-2.1-3.3-4.8-3.3c-5.2,0-7.9,4.1-7.9,11.3
						c0,6.4,2.2,10.5,7.7,10.5C573.5,149,575.9,148.1,575.9,145.7z"/>
					<path class="st0" d="M590.8,152.6v-28.4c0-0.7,0.2-1,0.9-1h4.9c0.7,0,0.9,0.2,0.9,0.9c0,0.5,0.1,0.8,0.6,0.8
						c1,0,3.2-2.3,6.5-2.3c2,0,2.4,0.5,2.4,1.5v3.7c0,0.5-0.2,0.9-0.8,0.9c-0.7,0-1.5-0.2-3.1-0.2c-3.1,0-5.5,1.4-5.5,4.9v19.3
						c0,0.7-0.2,1-0.8,1h-5.2C591.1,153.6,590.8,153.2,590.8,152.6z"/>
					<path class="st0" d="M609.3,138.1c0-9.4,4.4-15.8,14-15.8c9.4,0,13.9,5.8,13.9,15.8c0,9.7-4.3,15.9-13.9,15.9
						C613.7,154,609.3,147.9,609.3,138.1z M630.1,138.1c0-7.4-2.1-10.9-6.8-10.9c-4.9,0-7,3.7-7,10.9c0,7.6,2.2,11,6.9,11
						C627.8,149.1,630.1,145.7,630.1,138.1z"/>
					<path class="st0" d="M643.3,152.6v-39.9c0-0.7,0.4-1.1,1.1-1.1h4.8c0.7,0,1,0.4,1,1.1v39.8c0,0.7-0.3,1-1,1h-4.9
						C643.7,153.6,643.3,153.2,643.3,152.6z"/>
					<path class="st0" d="M656.4,138.1c0-9.4,4.4-15.8,14-15.8c9.4,0,13.9,5.8,13.9,15.8c0,9.7-4.3,15.9-13.9,15.9
						C660.8,154,656.4,147.9,656.4,138.1z M677.2,138.1c0-7.4-2.1-10.9-6.8-10.9c-4.9,0-7,3.7-7,10.9c0,7.6,2.2,11,6.9,11
						C674.9,149.1,677.2,145.7,677.2,138.1z"/>
					<path class="st0" d="M692,165.5c-1.6-0.7-1.9-1.1-1.9-2.3v-2.6c0-0.8,0.3-1.3,1-1.3c1.1,0,3.5,2.3,9.5,2.3
						c2.1,0,4.3-0.3,5.8-1.4c1.6-1.2,2.1-3.2,2.1-5.6v-2.1c0-0.5-0.1-0.8-0.5-0.8c-0.8,0-2.2,1.9-6.8,1.9c-7.9,0-12.5-5.8-12.5-15.3
						c0-10.4,5.4-16,12.8-16c4.3,0,6,2,6.8,2c0.3,0,0.4-0.1,0.4-0.5c0.1-0.4,0.2-0.7,0.8-0.7h4.9c0.7,0,0.8,0.4,0.8,1v28.7
						c0,4.4-0.4,7.6-2.4,10.1c-2.6,3.1-7,4.1-11.9,4.1C697,167,693.8,166.2,692,165.5z M708.4,144.9v-14.4c0-2.2-2.2-3.2-5-3.2
						c-4.6,0-7.7,3.1-7.7,11c0,6.5,2.2,10.4,7.4,10.4C706.3,148.7,708.4,147.3,708.4,144.9z"/>
					<path class="st0" d="M723,165.5v-3.1c0-0.8,0.4-1.1,1-1.1c0.2,0,0.7,0.1,1.5,0.1c1.2,0,2.2-0.4,2.9-2c1.1-2.5,1.3-3.4,1.3-4
						c0-0.4-0.1-1-0.4-1.7l-9.4-28.7c-0.2-0.6-0.3-0.9-0.3-1.2c0-0.4,0.2-0.6,0.8-0.6h5.1c0.6,0,1,0.2,1.1,0.8L733,146
						c0.1,0.4,0.2,0.5,0.5,0.5c0.2,0,0.4-0.2,0.5-0.6l6-22.1c0.2-0.7,0.6-0.8,1.2-0.8h4.3c0.5,0,0.7,0.2,0.7,0.6
						c0,0.3-0.1,0.5-0.2,1.3l-10.6,33.7c-1.9,6-4.6,8.3-9.4,8.3C723.6,167,723,166.5,723,165.5z"/>
				</g>
			</g>
		</g>
	</g>
</g>
<g>
	<g>
		<g>
			<g>
				<g>
					
						<radialGradient id="SVGID_1_" cx="138.532" cy="130.1989" r="62.7175" fx="113.4875" fy="92.0097" gradientTransform="matrix(-0.1294 -0.9916 1.4582 -0.1903 -33.3954 292.3409)" gradientUnits="userSpaceOnUse">
						<stop  offset="0" style="stop-color:#93C462"/>
						<stop  offset="0.4539" style="stop-color:#3AAA35"/>
						<stop  offset="1" style="stop-color:#008C3C"/>
					</radialGradient>
					<path class="st1" d="M151.7,34.9c43.6,32.8-8.8,54.4-38.2,71.8c-29.4,17.5-82.1,39.5-38.2,71.9l0.1,0c11.4,6,24.4,9.5,38.1,9.5
						c45,0,81.4-36.5,81.4-81.4c0-31.1-17.4-58.1-43-71.8L151.7,34.9"/>
					
						<radialGradient id="SVGID_00000032614563798217658210000016711724494883118493_" cx="101.0384" cy="80.5737" r="90.6761" fx="149.6393" fy="38.3888" gradientTransform="matrix(1 0 0 0.8119 0 15.1541)" gradientUnits="userSpaceOnUse">
						<stop  offset="0" style="stop-color:#A3CCEE"/>
						<stop  offset="0.2187" style="stop-color:#70A8DB"/>
						<stop  offset="0.429" style="stop-color:#3E8BCB"/>
						<stop  offset="0.5382" style="stop-color:#2581C4"/>
						<stop  offset="0.9866" style="stop-color:#005CA9"/>
					</radialGradient>
					<path style="fill:url(#SVGID_00000032614563798217658210000016711724494883118493_);" d="M75.4,178.7L75.4,178.7
						c-43.9-32.5,8.7-54.4,38.2-71.9c29.4-17.5,81.8-39,38.2-71.8l0.1,0l-0.1-0.1c-11.4-6.1-24.4-9.5-38.2-9.5
						c-45,0-81.4,36.5-81.4,81.4C32.1,137.9,49.6,165,75.4,178.7"/>
				</g>
			</g>
		</g>
	</g>
	
		<radialGradient id="SVGID_00000016060500395050482920000012534024966612107955_" cx="-475.9997" cy="696.2181" r="81.392" gradientTransform="matrix(0 1 1 0 -582.7408 582.7408)" gradientUnits="userSpaceOnUse">
		<stop  offset="0.7381" style="stop-color:#0088AA;stop-opacity:0"/>
		<stop  offset="0.8732" style="stop-color:#0087A8;stop-opacity:0.65"/>
		<stop  offset="1" style="stop-color:#0087A8"/>
	</radialGradient>
	
		<circle style="opacity:0.49;fill:url(#SVGID_00000016060500395050482920000012534024966612107955_);" cx="113.5" cy="106.7" r="81.4"/>
	
		<linearGradient id="SVGID_00000090985323345779824640000008955003924087660221_" gradientUnits="userSpaceOnUse" x1="40.7386" y1="106.6558" x2="163.7839" y2="62.1589">
		<stop  offset="0.5312" style="stop-color:#FFFFFF;stop-opacity:0"/>
		<stop  offset="0.8768" style="stop-color:#FFFFFF;stop-opacity:0.5545"/>
		<stop  offset="0.9364" style="stop-color:#FFFFFF;stop-opacity:0.65"/>
	</linearGradient>
	<path style="opacity:0.6;fill:url(#SVGID_00000090985323345779824640000008955003924087660221_);" d="M113.5,29.2
		c-42.8,0-77.6,34.8-77.6,77.5c0,19,6.9,37,19,50.8c-0.2-1.5-0.3-3.1-0.2-4.7c1.1-18.2,24.9-31.5,45.9-43.2
		c3.8-2.1,7.5-4.2,10.9-6.2c3.5-2.1,7.4-4.2,11.3-6.5c18.1-10.1,40.7-22.7,41.6-36.6c0.5-7-4.6-14.5-15.1-22.4c0,0,0,0,0,0
		C138.3,32.2,126,29.2,113.5,29.2z"/>
	
		<linearGradient id="SVGID_00000011033547509091220670000006914342669378319247_" gradientUnits="userSpaceOnUse" x1="-1046.8015" y1="-634.305" x2="-923.7562" y2="-678.8018" gradientTransform="matrix(-1 0 0 -1 -861.3775 -527.8719)">
		<stop  offset="0.5312" style="stop-color:#FFFFFF;stop-opacity:0"/>
		<stop  offset="0.8768" style="stop-color:#FFFFFF;stop-opacity:0.5545"/>
		<stop  offset="0.9364" style="stop-color:#FFFFFF;stop-opacity:0.65"/>
	</linearGradient>
	<path style="opacity:0.6;fill:url(#SVGID_00000011033547509091220670000006914342669378319247_);" d="M112.7,183.9
		c42.8,0,77.6-34.8,77.6-77.5c0-19-6.9-37-19-50.8c0.2,1.5,0.3,3.1,0.2,4.7c-1.1,18.2-24.9,31.5-45.9,43.2
		c-3.8,2.1-7.5,4.2-10.9,6.2c-3.5,2.1-7.4,4.2-11.3,6.5c-18.1,10.1-40.7,22.7-41.6,36.6c-0.5,7,4.6,14.5,15.1,22.4c0,0,0,0,0,0
		C87.8,180.9,100.2,183.9,112.7,183.9z"/>
	<g>
		<defs>
			<circle id="SVGID_00000165203012681221209640000007964120286873366694_" cx="113.5" cy="106.7" r="81.4"/>
		</defs>
		<clipPath id="SVGID_00000059282158604110597370000002432108113113175736_">
			<use xlink:href="#SVGID_00000165203012681221209640000007964120286873366694_"  style="overflow:visible;"/>
		</clipPath>
		
			<radialGradient id="SVGID_00000045587358205819829410000013364375606683815356_" cx="-535.8076" cy="644.3669" r="81.392" gradientTransform="matrix(0 1 1 0 -582.7408 582.7408)" gradientUnits="userSpaceOnUse">
			<stop  offset="0" style="stop-color:#FFFFFF"/>
			<stop  offset="0.7833" style="stop-color:#FFFFFF;stop-opacity:0"/>
		</radialGradient>
		
			<circle style="opacity:0.5;clip-path:url(#SVGID_00000059282158604110597370000002432108113113175736_);fill:url(#SVGID_00000045587358205819829410000013364375606683815356_);" cx="61.6" cy="46.9" r="81.4"/>
	</g>
</g>
</svg>
